<mxfile host="app.diagrams.net" modified="2024-01-25T16:25:20.846Z" agent="Mozilla/5.0 (Macintosh; Intel Mac OS X 10_15_7) AppleWebKit/537.36 (KHTML, like Gecko) Chrome/120.0.0.0 Safari/537.36" version="22.1.21" etag="nF6lmTxoyP6edJWtCc5L" type="github">
  <diagram name="Page-1" id="WA7NELbDHmsJ2okj75bz">
    <mxGraphModel>
      <root>
        <mxCell id="0" />
        <mxCell id="1" parent="0" />
      </root>
    </mxGraphModel>
  </diagram>
</mxfile>
